<?xml version="1.0" standalone="no"?>
<!DOCTYPE svg PUBLIC "-//W3C//DTD SVG 20010904//EN"
 "http://www.w3.org/TR/2001/REC-SVG-20010904/DTD/svg10.dtd">
<svg version="1.0" xmlns="http://www.w3.org/2000/svg"
 width="16.000000pt" height="16.000000pt" viewBox="0 0 16.000000 16.000000"
 preserveAspectRatio="xMidYMid meet">
<metadata>
Created by potrace 1.11, written by Peter Selinger 2001-2013
</metadata>
<g transform="translate(0.000000,16.000000) scale(0.002413,-0.002413)"
fill="#000000" stroke="none">
<path d="M3149 6466 c-102 -27 -190 -103 -238 -205 l-26 -56 -3 -2287 -2
-2288 121 0 c137 0 210 15 308 63 144 71 269 243 291 402 6 43 10 699 10 1723
0 1541 1 1652 17 1652 16 0 97 -47 743 -430 151 -90 314 -186 362 -214 l88
-51 0 -472 c0 -462 0 -473 -20 -473 -10 0 -104 52 -207 116 -103 64 -208 129
-233 144 -25 15 -82 50 -127 78 l-82 51 -47 -72 c-65 -99 -101 -171 -119 -242
-43 -168 13 -353 145 -485 58 -57 140 -109 700 -439 349 -205 645 -380 658
-387 22 -14 22 -18 22 -197 l0 -182 -98 -54 c-53 -30 -272 -154 -487 -276
-214 -122 -565 -321 -780 -442 -214 -121 -502 -284 -639 -362 -141 -81 -254
-140 -263 -137 -8 3 -72 41 -141 83 -175 106 -547 330 -1284 774 -345 208
-639 386 -652 395 l-25 16 -3 1121 -3 1122 -27 74 c-63 173 -194 296 -372 350
-54 17 -95 21 -197 21 l-129 0 2 -1487 3 -1488 29 -57 c40 -80 91 -125 256
-224 80 -48 429 -258 775 -467 347 -209 650 -392 675 -407 25 -15 251 -151
502 -303 472 -284 498 -297 602 -297 75 0 136 26 376 163 129 73 548 310 930
527 382 217 880 498 1105 625 462 261 510 296 556 410 l24 60 0 445 0 445 -32
67 c-17 37 -51 86 -75 109 -25 25 -152 106 -313 200 l-270 157 -5 838 c-6 927
0 858 -70 959 -39 56 -65 73 -540 355 -206 123 -429 256 -495 295 -66 40 -289
172 -495 295 -206 123 -415 247 -465 277 -135 81 -224 99 -336 69z"/>
</g>
</svg>
